<svg height="60.891" viewBox="0 0 16.111 16.111" width="60.891" xmlns="http://www.w3.org/2000/svg"><g transform="translate(-18.021 -334.125)"><circle cx="26.076" cy="342.18" r="8.055" fill="#ffd42a"/><path d="M20.609 336.275a8.055 8.055 0 00-2.588 5.905 8.055 8.055 0 008.056 8.055 8.055 8.055 0 007.004-4.088 8.055 8.055 0 01-.46.405 8.055 8.055 0 01-.655.468 8.055 8.055 0 01-.7.401 8.055 8.055 0 01-.734.329 8.055 8.055 0 01-.764.254 8.055 8.055 0 01-.786.176 8.055 8.055 0 01-.8.097 8.055 8.055 0 01-.569.02 8.055 8.055 0 01-.804-.04 8.055 8.055 0 01-.796-.12 8.055 8.055 0 01-.78-.2 8.055 8.055 0 01-.757-.275 8.055 8.055 0 01-.725-.35 8.055 8.055 0 01-.686-.422 8.055 8.055 0 01-.64-.487 8.055 8.055 0 01-.59-.549 8.055 8.055 0 01-.532-.605 8.055 8.055 0 01-.468-.655 8.055 8.055 0 01-.4-.698 8.055 8.055 0 01-.33-.735 8.055 8.055 0 01-.253-.764 8.055 8.055 0 01-.177-.786 8.055 8.055 0 01-.097-.8 8.055 8.055 0 01-.02-.569 8.055 8.055 0 01.04-.804 8.055 8.055 0 01.12-.796 8.055 8.055 0 01.2-.78 8.055 8.055 0 01.276-.757 8.055 8.055 0 01.35-.725 8.055 8.055 0 01.065-.105z" fill="#ffbc2a"/><ellipse cx="28.749" cy="338.571" rx=".707" ry=".697" fill="#1a1a1a"/><ellipse cx="23.404" cy="338.571" rx=".707" ry=".697" fill="#1a1a1a"/><path d="M29.588 344.818s-6.414 2.139-8.486-2.004" fill="none" stroke="#1a1a1a" stroke-width="1.058" stroke-linecap="round" stroke-linejoin="round"/></g></svg>